HIERARCHY
ROOT Hips
{
  OFFSET 0 89.5177 0.535
  CHANNELS 6 Xposition Yposition Zposition Zrotation Xrotation Yrotation
  JOINT Spine
  {
    OFFSET 12.0259 -0.162855 1.69034e-005
    CHANNELS 3 Zrotation Xrotation Yrotation
    JOINT Spine1
    {
      OFFSET 15.3169 -0.0121922 0
      CHANNELS 3 Zrotation Xrotation Yrotation
      JOINT Spine2
      {
        OFFSET 15.3176 -0.0121908 0
        CHANNELS 3 Zrotation Xrotation Yrotation
        JOINT Neck
        {
          OFFSET 19.9142 1.56338 0
          CHANNELS 3 Zrotation Xrotation Yrotation
          JOINT Head
          {
            OFFSET 6.92651 0 0
            CHANNELS 3 Zrotation Xrotation Yrotation
            End Site
            {
              OFFSET 20.7666 0 0
            }
          }
          JOINT LeftShoulder
          {
            OFFSET -6.20654 0.708824 7.28219
            CHANNELS 3 Zrotation Xrotation Yrotation
            JOINT LeftArm
            {
              OFFSET 14.108 0 -1.52588e-005
              CHANNELS 3 Zrotation Xrotation Yrotation
              JOINT LeftForeArm
              {
                OFFSET 28.5802 0 0
                CHANNELS 3 Zrotation Xrotation Yrotation
                JOINT LeftHand
                {
                  OFFSET 27.092 0 0
                  CHANNELS 3 Zrotation Xrotation Yrotation
                  End Site
                  {
                    OFFSET 9.55928 -0.186424 0.145352
                  }
                }
              }
            }
          }
          JOINT RightShoulder
          {
            OFFSET -6.20654 0.708866 -7.28218
            CHANNELS 3 Zrotation Xrotation Yrotation
            JOINT RightArm
            {
              OFFSET 14.108 0 1.52588e-005
              CHANNELS 3 Zrotation Xrotation Yrotation
              JOINT RightForeArm
              {
                OFFSET 28.5802 0 0
                CHANNELS 3 Zrotation Xrotation Yrotation
                JOINT RightHand
                {
                  OFFSET 27.092 0 0
                  CHANNELS 3 Zrotation Xrotation Yrotation
                  End Site
                  {
                    OFFSET 9.55929 -0.186417 -0.145354
                  }
                }
              }
            }
          }
        }
      }
    }
  }
  JOINT LeftUpLeg
  {
    OFFSET 0.005 -0.535 8.837
    CHANNELS 3 Zrotation Xrotation Yrotation
    JOINT LeftLeg
    {
      OFFSET 39.9035 0 0
      CHANNELS 3 Zrotation Xrotation Yrotation
      JOINT LeftFoot
      {
        OFFSET 39.6689 0 0
        CHANNELS 3 Zrotation Xrotation Yrotation
        JOINT LeftToe
        {
          OFFSET 10.1624 13.6296 0
          CHANNELS 3 Zrotation Xrotation Yrotation
          End Site
          {
            OFFSET 8.38147 0 0
          }
        }
      }
    }
  }
  JOINT RightUpLeg
  {
    OFFSET 0.005 -0.535 -8.837
    CHANNELS 3 Zrotation Xrotation Yrotation
    JOINT RightLeg
    {
      OFFSET 39.9035 0 0
      CHANNELS 3 Zrotation Xrotation Yrotation
      JOINT RightFoot
      {
        OFFSET 39.6689 0 0
        CHANNELS 3 Zrotation Xrotation Yrotation
        JOINT RightToe
        {
          OFFSET 10.1624 13.6296 0
          CHANNELS 3 Zrotation Xrotation Yrotation
          End Site
          {
            OFFSET 8.38147 0 0
          }
        }
      }
    }
  }
}
MOTION
Frames:	14
Frame Time:	0.0333333
454.035 91.5359 357.142 89.3408 -61.9483 -9.34437 1.46144 -0.105656 0.0896726 2.92306 -0.208516 0.182163 2.92306 -0.208516 0.182154 -8.30629e-012 -9.0191e-006 -5.27751e-005 -27.4532 3.6655 4.10414 -179.261 -1.89923 -68.7428 -4.65616 -7.0128 51.5845 -19.1349 -3.18055e-015 -7.95139e-016 -29.4205 -33.0731 -32.4419 179.639 -0.940127 68.9667 17.2648 3.43801 -62.0902 -32.1153 -1.59028e-015 -7.95139e-016 -28.88 44.9294 32.559 5.53926 8.7708 -173.216 -0.485424 0 7.95139e-016 7.75452 4.92575 -5.65385 90 7.95139e-016 -1.27222e-014 -8.3571 -24.5102 179.382 -19.3333 3.97569e-016 -1.09332e-015 -4.80212 -9.42421 8.1087 90 -7.95139e-016 -3.18055e-015 
454.231 91.5638 356.772 88.8172 -61.7046 -10.0095 1.47096 -0.0567048 0.158986 2.94208 -0.108834 0.319526 2.94208 -0.108834 0.319517 -8.30708e-012 -9.0191e-006 -5.27751e-005 -26.75 3.14385 3.937 -179.226 -1.98919 -68.7231 -4.68476 -7.35505 51.594 -19.8021 0 -7.95139e-016 -29.8008 -33.175 -32.9633 179.453 -1.45518 69.4014 18.7944 4.82505 -62.3857 -31.5012 -3.18055e-015 1.59028e-015 -24.9772 50.6289 30.3526 5.61129 8.73489 -172.708 -0.988217 -6.36111e-015 -3.97569e-016 7.97884 5.04586 -5.79395 90 7.95139e-016 -1.27222e-014 -9.50847 -25.1942 178.594 -22.1212 -3.97569e-016 -1.39149e-015 -4.14861 -11.1947 9.80082 90 0 -1.59028e-015 
454.451 91.5483 356.528 88.6046 -61.3635 -10.2655 1.49358 -0.0208567 0.202047 2.98721 -0.0359644 0.40472 2.98721 -0.0359646 0.404711 -8.30748e-012 -9.0191e-006 -5.27751e-005 -26.4058 2.53962 3.80129 -179.261 -1.9101 -68.8408 -4.84623 -7.35223 51.8199 -20.6738 6.36111e-015 -2.38542e-015 -30.029 -33.6405 -33.1926 179.506 -1.31881 69.4454 16.9167 4.06904 -61.9933 -31.1548 3.18055e-015 -2.38542e-015 -28.2864 44.3279 31.7652 5.42948 8.40059 -172.353 -1.63812 -3.18055e-015 -0 8.13156 5.02667 -5.77355 90 1.19271e-015 6.36111e-015 -11.5032 -25.7667 177.186 -25.6451 0 1.68967e-015 -3.58956 -13.4453 12.1249 90 -1.59028e-015 1.59028e-015 
454.679 91.4696 356.284 88.4583 -61.0515 -10.3485 1.50739 0.0101235 0.220569 3.01473 0.0265214 0.440947 3.01473 0.0265212 0.440938 -8.30669e-012 -9.0191e-006 -5.27751e-005 -26.1256 1.98646 3.65059 -179.31 -1.79264 -68.9328 -5.4185 -6.77226 51.9281 -21.5754 -6.36111e-015 -0 -30.1618 -34.2515 -33.3729 179.467 -1.43061 69.5647 16.8891 4.28181 -61.8454 -31.0674 0 -1.59028e-015 -28.6373 43.7529 31.9978 5.17856 8.27018 -172.09 -2.37038 -3.18055e-015 -7.95139e-016 8.57743 5.17124 -5.94703 90 1.59028e-015 6.36111e-015 -13.6442 -25.4093 175.439 -29.1654 7.95139e-016 -4.96962e-016 -2.99142 -16.3198 15.6112 90 -2.38542e-015 -3.18055e-015 
454.914 91.3487 355.979 88.3116 -60.6442 -10.3147 1.52138 0.0239746 0.214422 3.04265 0.0541092 0.428282 3.04265 0.0541089 0.428273 -8.30669e-012 -9.0191e-006 -5.27751e-005 -27.019 2.24533 4.94092 -179.364 -1.65253 -68.9527 -5.98748 -6.22204 51.9262 -22.106 0 -3.18055e-015 -30.2154 -34.3968 -33.5444 179.459 -1.44684 69.4959 16.8706 4.34565 -61.5824 -31.4403 7.95139e-015 -3.97569e-015 -28.9746 43.7756 32.0996 4.9184 8.4847 -171.856 -3.09884 6.36111e-015 -0 9.19174 5.75179 -6.63336 90 -7.95139e-016 -3.18055e-015 -15.3219 -24.4923 173.588 -31.8021 -7.95139e-016 8.94531e-016 -2.32416 -19.8049 20.5688 90 0 -1.59028e-015 
455.15 91.1935 355.588 88.3259 -60.1726 -10.08 1.52174 0.00861723 0.209902 3.04344 0.0232812 0.419652 3.04344 0.023281 0.419643 -8.30748e-012 -9.0191e-006 -5.27751e-005 -24.1577 0.44497 1.2974 -179.335 -1.71923 -68.8631 -6.79454 -5.56491 51.8 -22.4921 -3.18055e-015 -0 -30.113 -34.5764 -33.5309 179.458 -1.45649 69.5764 17.2428 4.50891 -61.6963 -31.8642 6.36111e-015 7.95139e-016 -29.0047 44.4241 32.4406 4.67194 8.44309 -171.671 -3.81818 3.18055e-015 -7.95139e-016 9.80287 6.13417 -7.09487 90 7.95139e-016 1.27222e-014 -16.0266 -23.1085 172.127 -32.6615 -1.59028e-015 -7.95139e-016 -1.45662 -23.3552 26.4504 90 1.59028e-015 -9.54166e-015 
455.378 91.0648 355.15 88.6022 -59.5284 -9.39731 1.47054 0.00656674 0.162419 2.94105 0.0177749 0.324768 2.94105 0.0177747 0.324759 -8.30847e-012 -9.0191e-006 -5.27751e-005 -25.2155 0.720607 3.0567 -179.295 -1.81399 -68.7661 -7.12018 -5.53321 51.8457 -22.0562 3.18055e-015 -1.59028e-015 -29.8803 -34.2394 -32.8644 179.493 -1.34284 69.3141 17.4074 4.18479 -61.4534 -32.1716 -1.59028e-015 7.15625e-015 -29.9 43.8275 32.8906 4.58688 8.23861 -171.709 -4.05424 6.36111e-015 1.59028e-015 10.1304 6.57051 -7.61442 90 0 -3.18055e-015 -15.4804 -21.3535 171.3 -31.0696 -7.95139e-016 3.97569e-015 -0.410416 -25.4386 30.5267 90 -1.59028e-015 6.36111e-015 
455.627 91.0576 354.617 88.8906 -58.8701 -8.71279 1.41622 0.010692 0.13534 2.8324 0.025201 0.270527 2.8324 0.0252008 0.270517 -8.3051e-012 -9.0191e-006 -5.27751e-005 -24.8381 0.438705 2.66167 -179.252 -1.91365 -68.6501 -7.08755 -5.47679 51.9776 -21.7674 3.18055e-015 -0 -29.549 -34.2085 -32.6863 179.507 -1.30108 69.234 17.8357 4.03579 -61.509 -32.1511 6.36111e-015 -2.38542e-015 -29.7638 44.4037 33.0011 5.12919 7.97825 -171.791 -3.08252 0 -7.95139e-016 9.76197 6.87577 -7.95579 90 1.19271e-015 -3.18055e-015 -13.671 -19.3923 171.451 -27.3134 0 2.5842e-015 -0.185359 -23.8849 29.2313 90 1.59028e-015 -0 
455.918 91.0919 354.009 89.3023 -58.2305 -7.87946 1.30322 0.0269421 0.169775 2.60636 0.0582132 0.339047 2.60636 0.058213 0.339038 -8.30589e-012 -9.0191e-006 -5.27751e-005 -24.2962 0.193207 1.89988 -179.092 -2.26799 -68.1637 -7.10676 -5.13413 51.9676 -21.4632 6.36111e-015 3.97569e-015 -29.3185 -34.3725 -32.4738 179.558 -1.1839 69.5055 18.3846 3.71709 -61.6954 -31.7276 3.18055e-015 1.59028e-015 -29.2331 44.46 32.549 5.93016 7.62507 -171.921 -1.52223 6.36111e-015 -7.95139e-016 9.0208 7.05752 -8.13874 90 3.97569e-016 9.54166e-015 -11.4071 -17.0795 172.329 -22.9257 1.59028e-015 2.18663e-015 -1.11403 -18.3904 21.7032 90 -1.59028e-015 3.18055e-015 
456.237 91.0289 353.348 89.8917 -57.6642 -6.67506 1.22895 0.0899214 0.0620018 2.45781 0.181626 0.122216 2.45781 0.181626 0.122207 -8.30828e-012 -9.0191e-006 -5.27751e-005 -24.1428 -0.154903 1.65914 -179.133 -2.17104 -68.2123 -6.84675 -4.91344 51.9571 -21.2615 0 -0 -29.1536 -34.3736 -32.641 179.487 -1.34405 69.105 18.6839 3.58188 -61.7161 -30.8982 4.77083e-015 2.38542e-015 -29.2013 43.906 32.3462 6.32566 7.4135 -172.189 -0.584916 -3.18055e-015 -1.59028e-015 8.64605 7.32982 -8.4376 90 -7.95139e-016 -1.27222e-014 -8.97771 -14.7611 173.222 -17.5417 -3.18056e-015 -5.96354e-016 -3.57627 -11.9205 13.6123 90 7.95139e-016 -0 
456.621 90.7897 352.653 90.951 -57.5369 -4.55267 1.03886 0.212513 -0.07257 2.078 0.424149 -0.148825 2.078 0.424148 -0.148835 -8.30629e-012 -9.0191e-006 -5.27751e-005 -23.3198 -0.890357 0.535984 -178.906 -2.70351 -67.9555 -6.98021 -4.3386 51.8885 -21.1293 0 2.38542e-015 -29.003 -34.1461 -32.5753 179.593 -1.07283 69.2188 18.7219 3.32545 -61.9064 -29.8846 1.59028e-015 2.38542e-015 -28.7447 43.5405 31.9401 5.94934 7.6401 -172.888 -0.783173 1.27222e-014 -0 8.97013 7.7724 -8.95412 90 -1.19271e-015 -0 -7.46007 -13.223 173.25 -12.7745 3.18056e-015 1.09332e-015 -5.49509 -8.87947 10.0365 90 0 6.36111e-015 
457.003 90.6201 351.73 90.014 -57.2938 -4.78617 1.11596 0.332247 -0.0425696 2.23222 0.664076 -0.091448 2.23222 0.664076 -0.0914573 -8.30748e-012 -9.0191e-006 -5.27751e-005 -23.7534 -0.619025 0.301424 -178.969 -2.47728 -67.3998 -6.40478 -3.98511 51.4619 -20.7673 0 -1.59028e-015 -28.9319 -33.8033 -32.2217 179.441 -1.46532 69.1053 19.3634 3.59218 -61.9059 -28.8161 -4.77083e-015 -0 -28.2526 43.2786 31.4036 6.76043 7.46727 -172.838 -0.943738 3.18055e-015 7.95139e-016 9.17621 7.84976 -9.04441 90 -7.95139e-016 9.54166e-015 -5.45425 -14.6448 173.632 -10.3446 -6.36111e-015 -2.6339e-015 -4.13639 -8.73724 9.90363 90 -7.95139e-016 3.18055e-015 
457.488 90.5185 350.744 89.0297 -57.2042 -5.44697 1.19239 0.406424 0.113378 2.38406 0.815593 0.218438 2.38406 0.815593 0.218429 -8.30669e-012 -9.0191e-006 -5.27751e-005 -22.2725 -1.26823 -2.47424 -178.828 -2.74249 -66.8403 -5.7403 -4.07549 51.346 -19.9591 0 -1.59028e-015 -28.9551 -33.4249 -32.1597 179.433 -1.48475 69.1041 19.2378 3.93513 -61.7664 -27.7911 0 1.59028e-015 -27.9054 42.8742 31.1339 7.28519 7.71058 -172.295 -1.52731 0 -1.59028e-015 9.60472 8.12033 -9.36348 90 -1.98785e-016 -6.36111e-015 -3.33104 -16.3858 174.361 -8.77065 0 3.97569e-016 -1.71745 -8.89123 10.1231 90 1.19271e-015 -3.18055e-015 
458.184 90.4157 349.839 89.619 -57.6613 -4.71215 1.07629 0.508862 0.248749 2.15049 1.02278 0.488082 2.15049 1.02278 0.488073 -8.30708e-012 -9.0191e-006 -5.27751e-005 -23.4889 -0.28224 -0.868815 -178.731 -2.93319 -66.5961 -4.21691 -4.66724 51.8221 -18.7029 6.36111e-015 -5.56597e-015 -28.6981 -32.6935 -31.7858 179.398 -1.57205 69.041 19.1677 4.30986 -61.4801 -27.1357 3.18055e-015 1.59028e-015 -27.6681 42.6518 31.1648 6.84091 8.03224 -171.833 -2.16502 0 7.95139e-016 9.58527 8.02594 -9.24761 90 -3.97569e-016 -0 -2.43845 -16.7058 175.153 -7.39263 0 3.27995e-015 -0.262556 -8.78129 10.02 90 3.97569e-016 -0 
